<?xml version="1.0" standalone="no"?>
<!DOCTYPE svg PUBLIC "-//W3C//DTD SVG 20010904//EN"
 "http://www.w3.org/TR/2001/REC-SVG-20010904/DTD/svg10.dtd">
<svg version="1.0" xmlns="http://www.w3.org/2000/svg"
 width="72.000000pt" height="72.000000pt" viewBox="0 0 72.000000 72.000000"
 preserveAspectRatio="xMidYMid meet">
<metadata>
Created by potrace 1.14, written by Peter Selinger 2001-2017
</metadata>
<g transform="translate(0.000000,72.000000) scale(0.100000,-0.100000)"
fill="#000000" stroke="none">
<path d="M377 664 c-3 -3 -25 -7 -49 -9 -86 -6 -196 -80 -239 -160 -79 -147
-16 -342 133 -414 26 -12 49 -21 51 -19 2 2 12 -4 22 -12 15 -12 17 -12 10 -1
-6 11 -5 12 6 5 19 -12 101 -13 117 -1 6 5 12 7 12 4 0 -14 92 32 128 64 42
37 89 111 100 157 23 101 -15 225 -90 295 -41 38 -113 77 -143 77 -9 0 -24 4
-34 10 -10 5 -21 7 -24 4z"/>
</g>
</svg>
