<?xml version="1.0" encoding="UTF-8"?><svg xmlns="http://www.w3.org/2000/svg" viewBox="0 0 980.96 722.05"><defs><style>.d{fill:#fff9ed;}</style></defs><g id="a"/><g id="b"><g id="c"><g><path class="d" d="M466.44,413.12c-.35-.86-.59-1.76-.73-2.67-.06-.47-.09-.95-.09-1.43,0-.62-.54-1.21-1.18-1.18-.64,.03-1.18,.52-1.18,1.18,0,2.62,.81,5.25,2.33,7.39,.8,1.12,1.74,2.09,2.84,2.92,1.02,.78,2.16,1.38,3.37,1.82,2.49,.91,5.31,.99,7.86,.27,2.46-.7,4.72-2.14,6.35-4.11,.44-.53,.85-1.09,1.2-1.67,.24-.4,.45-.82,.65-1.25,.32,.71,.7,1.39,1.16,2.02,.8,1.12,1.74,2.09,2.84,2.92,1.02,.78,2.16,1.38,3.37,1.82,2.49,.91,5.31,.99,7.86,.27,2.46-.7,4.72-2.14,6.35-4.11,.44-.53,.85-1.09,1.2-1.67,.35-.59,.64-1.21,.91-1.84,.5-1.22,.78-2.52,.88-3.83,.02-.31,.04-.62,.04-.94,0-.62-.54-1.21-1.18-1.18-.64,.03-1.18,.52-1.18,1.18,0,.48-.03,.95-.09,1.43-.14,.92-.38,1.81-.73,2.67-.37,.83-.82,1.61-1.37,2.34-.56,.7-1.2,1.34-1.9,1.9-.72,.54-1.51,1-2.34,1.37-.86,.35-1.76,.59-2.67,.73-.95,.11-1.91,.11-2.85,0-.92-.14-1.81-.38-2.67-.73-.83-.37-1.61-.82-2.34-1.37-.7-.56-1.34-1.2-1.9-1.9-.54-.72-1-1.51-1.37-2.34-.35-.86-.59-1.76-.73-2.67-.01-.08-.02-.17-.03-.25v-9.4c.18-.1,.34-.23,.49-.38l8.43-8.43c1.55-1.55,.45-4.19-1.74-4.19h-16.85c-2.19,0-3.28,2.64-1.74,4.19l8.43,8.43c.19,.19,.4,.34,.62,.45v7.78c-.04,.12-.07,.24-.07,.37,0,.48-.03,.95-.09,1.43-.14,.92-.38,1.81-.73,2.67-.37,.83-.82,1.61-1.37,2.34-.56,.7-1.2,1.34-1.9,1.9-.72,.54-1.51,1-2.34,1.37-.86,.35-1.76,.59-2.67,.73-.95,.11-1.91,.11-2.85,0-.92-.14-1.81-.38-2.67-.73-.83-.37-1.61-.82-2.34-1.37-.7-.56-1.34-1.2-1.9-1.9-.54-.72-1-1.51-1.37-2.34Z"/><path class="d" d="M638.38,403.03c29.83-29.83,29.83-78.19,0-108.02-29.83-29.83-78.19-29.83-108.02,0-29.83,29.83-29.83,78.19,0,108.02,29.83,29.83,78.19,29.83,108.02,0Zm-54.02-114.87c33.65,0,60.93,27.28,60.93,60.93,0,4.16-.42,8.21-1.21,12.14-7.07-4.58-18.77-7.57-32.02-7.57-21.59,0-39.1,7.95-39.1,17.76s17.5,17.76,39.1,17.76c7.44,0,14.39-.94,20.31-2.58-11.15,14.26-28.5,23.43-48,23.43-33.65,0-60.93-27.28-60.93-60.93s27.28-60.93,60.93-60.93Z"/><path class="d" d="M601.95,330.52c7.2,0,13.03-5.83,13.03-13.03s-5.83-13.03-13.03-13.03-13.03,5.83-13.03,13.03,5.83,13.03,13.03,13.03Z"/><path class="d" d="M578.81,342.08c-13.8-2.35-24.77-20.13-26.21-42.52-1.45,22.38-12.41,40.17-26.21,42.52,13.8,2.35,24.77,20.13,26.21,42.52,1.45-22.38,12.41-40.17,26.21-42.52Z"/><path class="d" d="M445.66,403.03c29.83-29.83,29.83-78.19,0-108.02-29.83-29.83-78.19-29.83-108.02,0-29.83,29.83-29.83,78.19,0,108.02,29.83,29.83,78.19,29.83,108.02,0Zm-54.02-114.87c33.65,0,60.93,27.28,60.93,60.93,0,4.16-.42,8.21-1.21,12.14-7.07-4.58-18.77-7.57-32.02-7.57-21.59,0-39.1,7.95-39.1,17.76s17.5,17.76,39.1,17.76c7.44,0,14.39-.94,20.31-2.58-11.15,14.26-28.5,23.43-48,23.43-33.65,0-60.93-27.28-60.93-60.93s27.28-60.93,60.93-60.93Z"/><path class="d" d="M409.24,330.52c7.2,0,13.03-5.83,13.03-13.03s-5.83-13.03-13.03-13.03-13.03,5.83-13.03,13.03,5.83,13.03,13.03,13.03Z"/><path class="d" d="M386.09,342.08c-13.8-2.35-24.77-20.13-26.21-42.52-1.45,22.38-12.41,40.17-26.21,42.52,13.8,2.35,24.77,20.13,26.21,42.52,1.45-22.38,12.41-40.17,26.21-42.52Z"/><path class="d" d="M428.22,523.35c35.51,9.74,71.46,11.66,107.73,4.91,66.66-12.41,115.77-48.38,145.66-109.54,17.56-35.92,23.24-73.86,16.99-113.41-5.06-32.04-18.32-60.51-38.43-85.84-2.57-3.24-4.33-6.2-3.28-10.69,.74-3.18,.29-6.73-.07-10.06-1.4-12.8-2.76-25.6-4.54-38.35-3.54-25.37-9.31-50.24-17.79-74.44-6.97-19.89-15.18-39.18-27.52-56.45-6.38-8.93-13.58-17.09-23.08-22.87-17.53-10.66-36.61-8.32-51.06,6.2-6.96,6.99-12.01,15.25-15.81,24.27-13.03,30.94-18.89,63.24-18.07,96.78,.02,.96-.13,1.93-.25,3.59-10.69,.8-21.26,1.59-32.44,2.42-.38-1.9-.66-3.03-.82-4.17-1.94-13.72-3.66-27.48-5.86-41.17-2.9-18.09-7.9-35.57-16.46-51.89-4.84-9.23-10.93-17.51-19.45-23.7-8.73-6.35-18.41-8.87-29.19-6.75-9.01,1.77-16.8,5.78-23.49,12.01-7.29,6.79-14.04,14.14-18.93,22.8-6.82,12.06-13.8,24.12-19.33,36.79-15.69,35.91-26.83,73.26-32.78,112.04-2.61,17.04-4.72,34.18-3.88,51.49,.17,3.47-.44,6.58-1.71,9.79-17.37,43.81-19.1,88.19-5.03,133.23,18.04,57.72,73.55,115.09,138.9,133.01Zm-115.45-262.85c10.01-21.45,23.69-40.25,39.84-57.37,3.26-3.46,6.67-6.8,9.87-10.31,1.31-1.44,2.58-3.08,3.32-4.86,1.56-3.74-.68-7.16-4.65-6.65-2.81,.36-5.73,1.6-8.14,3.15-13.63,8.79-25.09,19.95-35.08,32.68-1.22,1.55-2.5,3.06-3.81,4.53-.2,.22-.72,.16-1.48,.29-.07-.93-.35-1.86-.18-2.71,6.14-31.48,11.67-63.11,21.02-93.87,6.06-19.95,13.29-39.48,23.89-57.5,5-8.5,10.76-16.69,17.17-24.17,4.42-5.16,10.27-9.28,15.99-13.1,7.2-4.82,14.86-4.29,21.45,1.31,4.02,3.41,7.68,7.49,10.64,11.85,7.42,10.92,11.7,23.31,15.45,35.88,5.53,18.48,9.05,37.33,10.25,56.58,.12,1.94,.02,3.9,.02,6.46-15.12,3.55-29.71,6.78-41.4,16.84-1.38,1.19-2.11,3.13-3.05,4.58,2.3,2.78,4.56,2.14,6.91,1.46,7.79-2.27,15.48-5.03,23.41-6.59,22.16-4.38,44.45-8.22,67.15-7.63,12.07,.31,24.12,1.48,36.18,2.19,2.17,.13,4.37,.1,6.53-.14,2.62-.28,5.41-1.02,5.93-4.01,.52-3.02-1.94-4.69-4.29-5.77-2.5-1.14-5.18-2.06-7.88-2.54-6.03-1.07-12.13-1.81-18.2-2.68-2.69-.39-5.39-.8-8.62-1.28,.78-5.15,1.57-9.78,2.17-14.43,2.76-21.23,6.03-42.35,13.13-62.68,3.55-10.17,7.93-19.94,14.7-28.36,3.06-3.81,6.73-7.3,10.68-10.18,5.58-4.08,12.07-4.47,17.92-.81,5.15,3.22,10.42,6.85,14.26,11.45,6.18,7.41,11.84,15.42,16.61,23.81,13.34,23.45,21.37,49.02,27.28,75.16,4.23,18.71,7.14,37.73,10.57,56.62,.34,1.9,.21,3.88,.31,5.9-3.05,.5-4.27-1.66-5.81-2.99-9.47-8.17-19.18-16.02-30.05-22.29-3.42-1.97-7.04-3.6-10.64-5.24-.97-.44-2.18-.35-3.39-.51-1.01,3.12,.04,5.45,1.72,7.43,2.55,3.02,5.08,6.13,8.06,8.69,12.05,10.39,23.02,21.86,33.23,34,25.88,30.75,42.92,65.73,47.02,105.96,4.78,46.79-7.77,88.7-38.64,124.66-31.32,36.48-71.16,58.53-118.1,67.08-42.17,7.69-82.41-.23-120.65-19.04-22.04-10.85-42.34-24.06-58.74-42.76-24.01-27.39-39.49-58.76-44.58-94.91-4.58-32.48,.83-63.48,14.7-93.18Z"/><path class="d" d="M765.98,319.47c21.82-10.68,42.73-23.04,61.05-38.97,9.33-8.12,16.97-18.32,24.6-28.18,3.62-4.67,6.07-10.54,7.88-16.24,2.74-8.61-.38-16.46-6.85-20.11-6.11-3.45-13.68-2.29-19.98,3.65-2.9,2.73-5.39,6.04-7.52,9.43-3.86,6.15-7.58,12.42-10.89,18.88-12.88,25.09-29.21,47.36-51.72,64.76-3.47,2.68-6.42,6.04-9.6,9.09,.28,.71,.57,1.42,.85,2.13,4.07-1.45,8.33-2.53,12.19-4.42Z"/><path class="d" d="M782.28,250.58c17.15-22.35,35.42-44.18,46.31-70.42,5.15-12.42,7.55-26.19,9.62-39.59,1.36-8.8-3.92-15.19-10.6-16.77-6.72-1.6-12.93,2.09-17.19,10.31-.92,1.78-1.75,3.65-2.32,5.56-3.1,10.41-7.05,20.68-8.96,31.31-3.87,21.57-10.76,42.03-19.47,62.03-3.62,8.33-6.56,16.96-9.81,25.46,.65,.46,1.31,.92,1.96,1.37,3.52-3.06,7.68-5.62,10.46-9.25Z"/><path class="d" d="M158.4,204.73c8.7,8.45,16.97,17.41,26.31,25.09,11,9.05,22.78,17.18,34.55,25.23,4.01,2.74,9.04,4,13.6,5.94,.53-.65,1.06-1.31,1.59-1.96-1.3-2.97-2.22-6.18-3.96-8.86-8.93-13.78-17.47-27.86-27.27-41.01-13.8-18.52-24.76-38.56-34.72-59.26-1.86-3.86-4.01-7.76-6.81-10.96-4.16-4.76-9.49-7.55-16.18-5.53-6.37,1.93-11.18,6.32-11.54,12.68-.46,8.02-.15,16.5,2.02,24.16,3.84,13.55,12.3,24.69,22.39,34.48Z"/><path class="d" d="M232.83,303.55c-16.54-11.7-33.03-23.49-49.79-34.87-8.92-6.06-18.32-11.43-27.57-17-5.13-3.09-10.46-4.67-15.31,.44-4.47,4.71-4.35,10.11-1.46,15.56,1.2,2.27,2.46,4.67,4.24,6.46,13,13.08,27.88,23.17,46.03,27.7,8.36,2.09,16.75,4.11,25.21,5.75,7.1,1.38,14.31,2.15,21.48,3.2,.45-.97,.91-1.93,1.36-2.9-1.38-1.46-2.57-3.2-4.18-4.33Z"/><path class="d" d="M146.74,522.7c5.17-8.23,8.1-17.39,8.79-27.49,.68-10.1-1.84-20.02-7.57-29.76-5.94-10.25-13.41-18.31-22.43-24.17-9.02-5.86-19.47-10.28-31.35-13.28,4.95-4.64,9.64-9.02,14.08-13.14,4.44-4.12,8.81-8.13,13.11-12.03,6.31-5.51,12.66-10.98,19.03-16.42,6.37-5.44,12.79-11.08,19.24-16.93,5.06-4.5,6.26-9.44,3.61-14.82-1.37-3-3.47-5.3-6.3-6.9-2.83-1.6-5.99-2.14-9.49-1.62-2.79,.64-5.5,1.51-8.14,2.59-2.64,1.09-5.08,2.41-7.33,3.99-5.84,3.53-11.59,7.17-17.26,10.91-5.67,3.74-11.2,7.65-16.59,11.74-16.32,12.6-31.9,25.92-46.75,39.97-14.86,14.04-29.33,28.75-43.43,44.12-1.17,1.39-2.26,2.72-3.3,4-1.04,1.28-1.9,2.77-2.61,4.47-1.8,3.94-2.43,7.79-1.88,11.57,.54,3.77,2.33,7.29,5.35,10.55,2.81,2.98,6.06,4.93,9.77,5.83,3.71,.9,7.46,.62,11.25-.82,1.23-.53,2.45-1.06,3.68-1.58,1.23-.53,2.45-1.06,3.68-1.58,6.51,20.25,14.92,34.95,25.23,44.1,10.31,9.15,23.11,13.62,38.42,13.42,10.25,.44,19.71-1.85,28.39-6.86,8.67-5.01,15.6-11.63,20.77-19.86Zm-31.99-27.61c-3.58,3.77-7.65,6.23-12.2,7.37-4.55,1.14-9.47,.87-14.74-.83-2.94-.83-5.66-2.3-8.15-4.39-2.5-2.09-4.72-4.47-6.64-7.13-1.93-2.67-3.57-5.49-4.94-8.5-1.37-3-2.45-5.77-3.25-8.31-1.51-4.71-1.69-8.43-.57-11.14,1.12-2.72,3.1-4.69,5.93-5.94,2.82-1.23,6.2-1.78,10.14-1.63,3.93,.15,7.9,.73,11.9,1.73,4,1.01,7.8,2.34,11.4,4.01,3.6,1.66,6.42,3.39,8.46,5.16,5.66,5.02,8.73,10.07,9.19,15.15,.46,5.09-1.72,9.9-6.54,14.44Z"/><path class="d" d="M219.29,542.93c1.02-1.65,1.88-3.29,2.59-4.96,3.09-7.64,1.84-14.46-3.74-20.44-2.82-3.11-5.92-4.94-9.3-5.5-3.38-.56-7.01-.22-10.88,1.03-7.93,2.76-15.36,7.09-22.3,12.97-6.94,5.88-13.22,12.51-18.82,19.89-5.6,7.39-10.3,15.25-14.09,23.59-3.79,8.34-6.53,16.42-8.23,24.23-.49,2.59-.82,5.35-.98,8.26-.17,2.91,.05,5.65,.66,8.22,.79,3.86,2.33,7.11,4.61,9.76,2.28,2.64,5.56,4.44,9.84,5.43,6.96,1.46,13.05-1.59,18.24-9.16,1.95-3.16,3.95-6.47,6.01-9.94,2.06-3.47,4.25-6.75,6.59-9.84,6.54-8.59,12.9-16.68,19.07-24.26,6.17-7.58,11.93-15.59,17.29-24.02,1.27-1.86,2.42-3.61,3.44-5.25Z"/><path class="d" d="M231.19,471.71c-5.23,.71-9.2,3.06-11.94,7.04-1.46,2.12-2.39,4.42-2.78,6.88-.4,2.46-.31,4.92,.27,7.37,.58,2.45,1.64,4.74,3.19,6.88,1.55,2.14,3.54,3.94,5.97,5.41,4.39,3.01,9.24,4.1,14.56,3.25,5.31-.84,9.39-3.32,12.21-7.44,1.37-1.99,2.19-4.21,2.47-6.66,.28-2.45,.07-4.89-.63-7.32-.7-2.43-1.76-4.73-3.19-6.88-1.43-2.15-3.24-3.98-5.44-5.49-4.57-2.75-9.48-3.77-14.7-3.06Z"/><path class="d" d="M361.27,550.18c-1.31-2.42-2.92-4.66-4.83-6.71-7.32-8.06-15.79-13.79-25.41-17.2-9.62-3.41-19.9-4.83-30.84-4.26-9.05,.55-17.61,2.39-25.68,5.51-8.07,3.12-15.26,7.19-21.56,12.22-6.3,5.03-11.58,10.89-15.83,17.58-4.25,6.7-7.08,13.89-8.5,21.59-1.76,10.82-.4,20.4,4.09,28.74,4.48,8.34,10.8,14.97,18.94,19.91,8.14,4.93,17.46,7.98,27.98,9.14,10.51,1.16,20.8,.02,30.87-3.42-1.81,11.49-5.51,20.34-11.1,26.56-4.23,4.48-9.02,7.53-14.39,9.12-5.37,1.6-10.84,1.89-16.4,.85-5.57-1.03-10.84-3.15-15.82-6.37-4.99-3.21-9.12-7.37-12.4-12.46-1.82-3.37-4.08-6.14-6.8-8.3-2.72-2.16-5.88-2.94-9.48-2.34-5.72,.71-8.88,3.26-9.49,7.66-.04,1.18-.09,2.24-.13,3.16-.04,.93-.09,1.98-.13,3.16,1.76,12.58,6.13,23.09,13.12,31.55,6.99,8.45,15.34,14.79,25.05,19,9.71,4.21,20.23,6.14,31.56,5.8,11.33-.35,22.29-3,32.9-7.95,9.38-5.22,16.48-11.59,21.31-19.1,4.83-7.51,8.11-15.71,9.84-24.58,1.73-8.87,2.33-18.01,1.8-27.42-.53-9.41-1.45-18.62-2.78-27.63-.77-3.69-2.23-6.85-4.4-9.51-2.17-2.64-5.4-4.56-9.69-5.74-3.96-1.06-7.26-1.03-9.92,.08-2.65,1.11-5.1,2.98-7.35,5.6-2.63,3.17-5.71,5.88-9.24,8.13-3.53,2.26-7.48,3.97-11.86,5.16-7.58,2.27-13.54,2.73-17.86,1.36-4.32-1.36-7.34-3.75-9.04-7.17-1.71-3.42-2.26-7.46-1.64-12.11,.61-4.65,2.14-9.11,4.59-13.36,3.32-5.66,8.03-10.18,14.13-13.57,6.1-3.39,12.67-5.46,19.72-6.21,7.04-.75,13.94-.01,20.69,2.2,6.74,2.22,12.51,6.14,17.3,11.77,2.86,2.55,5.81,3.94,8.84,4.16,3.03,.22,5.78-.77,8.26-2.97,2.2-1.95,3.81-4.12,4.84-6.49,1.02-2.37,.99-4.94-.09-7.72-.81-2.5-1.87-4.97-3.17-7.4Z"/><path class="d" d="M545.12,650.17c-3.01-.77-6.16-.49-9.47,.83-3.31,1.33-5.96,4.16-7.98,8.5-1.86,5.8-4.51,10.9-7.95,15.3-3.44,4.4-7.26,7.87-11.47,10.39-4.21,2.53-8.54,4.04-12.98,4.54-4.45,.5-8.52-.29-12.22-2.37-3.7-2.08-6.8-5.56-9.3-10.46-2.51-4.89-3.87-11.47-4.1-19.72,10.6,3.39,19.99,4.58,28.18,3.57,8.18-1.01,15.14-3.37,20.88-7.1,5.73-3.72,10.2-8.54,13.4-14.49,3.19-5.94,5.15-12.22,5.87-18.85,.72-6.63,.1-13.23-1.84-19.81-1.95-6.58-5.24-12.46-9.86-17.62-4.63-5.17-10.65-9.26-18.06-12.28-7.41-3.02-16.18-4.28-26.31-3.79-9.95,.5-18.64,2.8-26.07,6.9-7.43,4.1-13.68,9.31-18.74,15.62-5.07,6.32-8.99,13.55-11.77,21.67-2.78,8.13-4.51,16.56-5.17,25.29-.7,11.48,.5,22.75,3.63,33.8,3.12,11.06,8.12,20.75,15.02,29.11,6.89,8.36,15.49,14.64,25.82,18.83,10.32,4.2,22.25,5.1,35.78,2.71,6.58-1.2,12.92-3.61,19.02-7.24,6.09-3.63,11.53-8,16.31-13.11,4.78-5.11,8.81-10.75,12.1-16.93,3.29-6.18,5.42-12.34,6.4-18.48,.76-3.71,.19-6.92-1.72-9.62-1.92-2.7-4.38-4.43-7.38-5.21Zm-77.86-29.43c1.68-5.48,3.87-9.73,6.58-12.77,2.71-3.03,5.54-5.14,8.48-6.31,2.95-1.17,5.97-1.53,9.07-1.08,3.1,.45,5.93,1.47,8.48,3.04,2.55,1.58,4.61,3.59,6.17,6.04,1.56,2.45,2.41,4.97,2.55,7.56,.1,5.34-1.42,9.08-4.56,11.22-3.14,2.14-6.97,3.17-11.5,3.11-4.53-.07-9.17-1.11-13.93-3.12-4.76-2.01-8.54-4.58-11.34-7.69Z"/><path class="d" d="M735.67,603.86c-3.77-11.19-7.97-22.16-12.61-32.89-4.64-10.72-8.54-20.68-11.7-29.86-.42-1.22-.94-2.45-1.56-3.7-.62-1.24-1.3-2.42-2.06-3.53-1.79-2.46-4-4.39-6.64-5.8-2.64-1.4-5.38-2.25-8.21-2.56-2.83-.31-5.7-.05-8.6,.78-2.91,.83-5.52,2.25-7.83,4.24-3.78,3.19-6.46,6.59-8.03,10.21-1.57,3.62-2.67,7.51-3.3,11.67-.27,2.49-.88,6.43-1.84,11.8-.96,5.38-2.14,11.35-3.54,17.91-1.4,6.56-3.04,13.37-4.92,20.44-1.88,7.07-3.95,13.6-6.2,19.6-2.25,6-4.61,11.13-7.08,15.41s-5.09,6.89-7.86,7.84c-2.77,.95-5.61-.07-8.53-3.09-2.92-3.01-5.85-8.81-8.81-17.38-2.11-6.12-4.16-12.17-6.13-18.17-1.98-5.99-4.05-11.87-6.22-17.63-.74-2.14-1.52-4.27-2.34-6.38-.82-2.11-1.74-4.11-2.76-5.98-3.89-5.85-9.69-8.21-17.38-7.1-5.53,1.4-9.28,4.01-11.24,7.85-1.96,3.85-3.21,8-3.73,12.46,.1,6.82,.47,13.75,1.12,20.8,.65,7.05,1.87,13.86,3.66,20.43,1.8,6.57,4.19,12.85,7.2,18.83,3,5.99,6.93,11.39,11.79,16.22,3.71,3.69,7.96,6.63,12.76,8.82,4.79,2.2,9.84,3.5,15.14,3.89,5.3,.4,10.7-.26,16.21-2,5.51-1.72,10.72-4.72,15.63-8.98,5.2-4.53,9.5-10.03,12.9-16.51,3.4-6.48,6.27-13.29,8.59-20.42,2.33-7.13,4.4-14.18,6.23-21.15,1.83-6.96,3.87-13.14,6.14-18.55,2.27,3.33,4.5,7.35,6.7,12.07,2.19,4.72,4.3,9.6,6.32,14.64,2.02,5.04,3.77,10,5.27,14.88,1.49,4.88,2.57,9.09,3.23,12.62,.82,4,1,7.96,.57,11.87-.44,3.92-1.53,7.42-3.28,10.5-1.75,3.09-4.22,5.61-7.39,7.56-3.18,1.95-7.1,2.96-11.77,3.03-1.28,.1-2.81,.29-4.6,.56-3.12,.22-5.77,1.09-7.97,2.62-2.2,1.53-3.7,3.55-4.53,6.05-2.11,5.86-.42,10.5,5.08,13.91,3.18,2.15,6.6,3.63,10.26,4.42,3.65,.79,7.62,1.14,11.9,1.03,5.46-.51,10.78-1.67,15.99-3.46,5.2-1.79,9.98-4.26,14.35-7.39,4.36-3.13,8.15-7.01,11.35-11.61,3.2-4.61,5.63-9.95,7.3-16,2.63-9.8,3.06-20.27,1.29-31.38-1.77-11.11-4.53-22.27-8.3-33.47Z"/><path class="d" d="M871.57,505.12c-1.85-3.3-4.38-5.35-7.6-6.14-3.21-.79-6.21-.49-8.99,.9-2.78,1.39-4.98,3.66-6.61,6.82-1.63,3.17-1.79,7.05-.47,11.65,2.39,5.6,3.72,11.19,4,16.77,.28,5.58-.34,10.7-1.87,15.36-1.53,4.67-3.81,8.65-6.84,11.93-3.03,3.29-6.63,5.36-10.78,6.21-4.16,.85-8.78,.25-13.88-1.82-5.1-2.06-10.43-6.13-16.01-12.22,10.24-4.37,18.12-9.62,23.64-15.74,5.52-6.12,9.23-12.46,11.14-19.03,1.9-6.56,2.12-13.14,.64-19.72-1.47-6.58-4.11-12.61-7.9-18.09-3.79-5.48-8.58-10.07-14.36-13.77-5.78-3.7-12.11-5.99-18.99-6.87-6.88-.87-14.11-.03-21.69,2.54-7.58,2.57-15.04,7.35-22.37,14.36-7.19,6.9-12.26,14.32-15.19,22.28-2.93,7.96-4.25,15.99-3.94,24.08,.31,8.09,2.07,16.12,5.29,24.09,3.22,7.97,7.43,15.47,12.65,22.5,6.99,9.14,15.27,16.87,24.87,23.18,9.59,6.31,19.73,10.37,30.41,12.18,10.68,1.81,21.3,.92,31.85-2.67,10.55-3.58,20.16-10.71,28.82-21.37,4.19-5.22,7.41-11.19,9.63-17.92,2.23-6.73,3.47-13.59,3.74-20.58,.27-6.99-.37-13.9-1.94-20.73-1.56-6.82-3.98-12.87-7.26-18.16Zm-94.71,23.47c-2.31-5.24-3.45-9.89-3.39-13.96,.06-4.06,.82-7.51,2.28-10.32,1.46-2.81,3.51-5.06,6.15-6.75,2.64-1.69,5.44-2.77,8.4-3.25,2.96-.48,5.83-.3,8.62,.53,2.78,.83,5.08,2.18,6.88,4.05,3.57,3.98,4.87,7.8,3.9,11.47-.97,3.67-3.19,6.96-6.66,9.88-3.47,2.91-7.66,5.16-12.58,6.76-4.92,1.6-9.46,2.14-13.61,1.61Z"/><path class="d" d="M977.68,423.37c-2.92-6.49-6.64-11.54-11.17-15.17-4.53-3.62-9.55-6.09-15.07-7.42-5.52-1.32-11.4-1.72-17.64-1.2-6.24,.52-12.43,1.59-18.57,3.2-6.14,1.62-12.1,3.65-17.89,6.09-5.79,2.45-11,4.88-15.63,7.28-4.22,2.03-7.52,2.76-9.9,2.17-2.38-.59-4.08-2.01-5.09-4.27-1.01-2.26-1.48-5.11-1.4-8.58,.08-3.46,.4-6.99,.94-10.6,.54-3.6,1.21-7.02,2.01-10.27,.8-3.24,1.44-5.75,1.93-7.52,1.97-6.47,2.55-12.12,1.74-16.93-.81-4.82-2.47-8.59-4.98-11.33-2.51-2.73-5.67-4.4-9.45-5-3.78-.59-7.6,.12-11.46,2.17-3.85,2.05-7.51,5.5-10.97,10.36-3.46,4.87-6.19,11.35-8.18,19.46-1.55,6.72-2.42,13.8-2.6,21.23-.19,7.43,.44,14.62,1.86,21.56,1.43,6.94,3.65,13.33,6.68,19.16,3.03,5.83,6.92,10.52,11.68,14.07,4.76,3.56,10.43,5.58,17,6.08,6.58,.5,14.09-.96,22.54-4.41,3.49-1.43,6.92-3.01,10.29-4.72,3.37-1.71,6.8-3.28,10.29-4.72,10.2-3.85,18.56-4.92,25.07-3.21,6.52,1.71,10.76,4.85,12.74,9.44,1.98,4.59,1.32,9.88-1.96,15.88-3.28,6-9.74,11.4-19.38,16.2-1.61,.49-3.18,1.16-4.72,1.99-1.54,.84-2.97,1.59-4.3,2.25-2.43,1.24-4.24,2.85-5.42,4.83-1.18,1.99-1.59,4.43-1.24,7.32,.79,5.63,4.02,8.28,9.69,7.93,10.78-.4,20.71-3.48,29.79-9.24,9.07-5.76,16.63-12.77,22.69-21.05,6.05-8.27,10.12-17.17,12.19-26.67,2.08-9.51,1.37-18.29-2.12-26.36Z"/></g></g></g></svg>