<svg width="22" height="20" viewBox="0 0 22 20" fill="none" xmlns="http://www.w3.org/2000/svg">
<g clip-path="url(#clip0_537_2241)">
<path d="M3.23065 8.59346C4.51534 8.26815 5.20959 6.86591 4.78129 5.46147C4.353 4.05702 2.96435 3.18222 1.67966 3.50753C0.394964 3.83284 -0.299282 5.23508 0.129014 6.63953C0.557309 8.04397 1.94596 8.91878 3.23065 8.59346Z" fill="#977281"/>
<path d="M7.90717 6.13611C9.4131 6.04953 10.5415 4.64443 10.4275 2.99773C10.3134 1.35102 9.00023 0.0862864 7.4943 0.172862C5.98837 0.259437 4.86 1.66454 4.97401 3.31124C5.08802 4.95795 6.40124 6.22268 7.90717 6.13611Z" fill="#977281"/>
<path d="M16.883 3.20949C17.0462 1.56623 15.9602 0.133656 14.4574 0.00975443C12.9546 -0.114147 11.6041 1.11754 11.4409 2.76081C11.2778 4.40408 12.3638 5.83665 13.8665 5.96055C15.3693 6.08445 16.7198 4.85276 16.883 3.20949Z" fill="#977281"/>
<path d="M21.9227 6.00896C22.2588 4.58384 21.4745 3.22159 20.1709 2.96627C18.8673 2.71096 17.538 3.65928 17.2019 5.08439C16.8658 6.50951 17.65 7.87177 18.9536 8.12708C20.2573 8.38239 21.5865 7.43408 21.9227 6.00896Z" fill="#977281"/>
<path d="M18.7739 11.3513C18.6417 9.39381 16.8257 7.90654 14.7203 8.03021C13.2382 8.11808 12.0078 8.9805 11.4542 10.1667C10.8328 8.82917 9.35959 7.93257 7.70602 8.03021C5.60066 8.15387 4.00245 9.84129 4.13459 11.7988C4.12745 12.8809 5.63281 14.4674 6.92923 15.9417L9.89709 19.3149C10.6971 20.2245 12.2167 20.2294 13.0239 19.3246C13.931 18.306 15.0167 17.0872 15.6542 16.3566C16.9025 14.9296 18.7757 13.1559 18.7757 11.3513H18.7739Z" fill="#977281"/>
</g>
<defs>
<clipPath id="clip0_537_2241">
<rect width="22" height="20" fill="white"/>
</clipPath>
</defs>
</svg>
