<?xml version="1.0" encoding="UTF-8" standalone="no"?>
<svg
   width="106.80618"
   height="95.087151"
   viewBox="0 0 106.80618 95.087151"
   fill="none"
   version="1.1"
   id="svg4"
   sodipodi:docname="paw-small.svg"
   inkscape:version="1.1.1 (3bf5ae0d25, 2021-09-20)"
   xmlns:inkscape="http://www.inkscape.org/namespaces/inkscape"
   xmlns:sodipodi="http://sodipodi.sourceforge.net/DTD/sodipodi-0.dtd"
   xmlns="http://www.w3.org/2000/svg"
   xmlns:svg="http://www.w3.org/2000/svg">
  <defs
     id="defs8" />
  <sodipodi:namedview
     id="namedview6"
     pagecolor="#505050"
     bordercolor="#ffffff"
     borderopacity="1"
     inkscape:pageshadow="0"
     inkscape:pageopacity="0"
     inkscape:pagecheckerboard="1"
     showgrid="false"
     fit-margin-top="0"
     fit-margin-left="0"
     fit-margin-right="0"
     fit-margin-bottom="0"
     inkscape:zoom="2.0174991"
     inkscape:cx="-136.30737"
     inkscape:cy="6.1957896"
     inkscape:window-width="2560"
     inkscape:window-height="1361"
     inkscape:window-x="-9"
     inkscape:window-y="-9"
     inkscape:window-maximized="1"
     inkscape:current-layer="svg4" />
  <path
     d="m 76.895707,69.951443 c 3.1259,-9.0191 -2.4938,-19.27 -12.5406,-22.8872 -7.0743,-2.5428 -14.4559,-1.1217 -19.3027,3.0886 -0.3391,-7.2148 -5.4902,-14.14408 -13.382,-16.98277 -10.0468,-3.61713 -20.71929,0.76601 -23.8451193,9.78517 -2.101577,4.8267 1.8805297,14.9062 5.1036893,24.0696 l 7.38193,20.9694 c 1.9892,5.654 9.061,8.686 14.5513,6.2374 6.1741,-2.7601 13.5628,-6.0619 17.9298,-8.0677 8.544,-3.9117 20.6628,-8.1359 24.112,-16.209 z"
     fill="#977281"
     id="path2" />
  <path
     d="m 10.783791,30.01137 c 6.6082,1.0894 12.5234,-3.8086 13.2121,-10.940001 0.6886,-7.131389 -4.11,-13.795699 -10.7181,-14.885128 C 6.669661,3.096813 0.75444085,7.99481 0.06576285,15.12627 c -0.688681,7.1314 4.10996815,13.7957 10.71802815,14.8851 z"
     fill="#977281"
     id="path2-7" />
  <path
     d="m 40.243952,28.280583 c 7.18265,2.5957 15.12625,-1.4551 17.74245,-9.047801 2.6163,-7.592699 -1.0856,-15.8519587 -8.2683,-18.44764664 -7.1827,-2.59569206 -15.12625,1.45515804 -17.74247,9.04784744 -2.616223,7.5927002 1.08563,15.8520002 8.26832,18.4476002 z"
     fill="#977281"
     id="path2-0" />
  <path
     d="m 88.086511,32.326727 c 3.9012,-7.0283 1.5791,-15.58831 -5.1867,-19.11938 -6.7657,-3.5310705 -15.41299,-0.69605 -19.3142,6.3322 -3.90121,7.02828 -1.57904,15.58828 5.1867,19.11938 6.7657,3.531 15.413,0.696 19.3142,-6.3322 z"
     fill="#977281"
     id="path2-78" />
  <path
     d="m 104.16681,57.459974 c 4.2903,-5.7097 3.2395,-13.35757 -2.347,-17.081979 -5.586399,-3.72442 -13.593041,-2.115047 -17.883281,3.594629 -4.29024,5.70965 -3.23946,13.35755 2.34699,17.08195 5.58639,3.7244 13.593078,2.115 17.883291,-3.5946 z"
     fill="#977281"
     id="path2-8" />
</svg>
